<svg width="72" height="72" viewBox="0 0 72 72" fill="none" xmlns="http://www.w3.org/2000/svg">
<path d="M63 24H55.23L52.23 21H45C43.4102 21.0047 41.8868 21.6384 40.7626 22.7626C39.6384 23.8868 39.0047 25.4102 39 27V39C39.0047 40.5898 39.6384 42.1132 40.7626 43.2374C41.8868 44.3616 43.4102 44.9953 45 45H63C64.5898 44.9953 66.1132 44.3616 67.2374 43.2374C68.3616 42.1132 68.9953 40.5898 69 39V30C68.9953 28.4102 68.3616 26.8868 67.2374 25.7626C66.1132 24.6384 64.5898 24.0047 63 24ZM63 39H45V27H51L54 30H63V39ZM63 51H55.23L52.23 48H45C43.4102 48.0047 41.8868 48.6384 40.7626 49.7626C39.6384 50.8868 39.0047 52.4102 39 54V66C39.0047 67.5898 39.6384 69.1132 40.7626 70.2374C41.8868 71.3616 43.4102 71.9953 45 72H63C64.5898 71.9953 66.1132 71.3616 67.2374 70.2374C68.3616 69.1132 68.9953 67.5898 69 66V57C68.9953 55.4102 68.3616 53.8868 67.2374 52.7626C66.1132 51.6384 64.5898 51.0047 63 51ZM63 66H45V54H51L54 57H63V66ZM24 57V36H39V30H24V24H18V63H39V57H24ZM30 3H22.23L19.23 0H12C10.4102 0.00474818 8.8868 0.638414 7.7626 1.7626C6.63841 2.8868 6.00475 4.41016 6 6V18C6.00475 19.5898 6.63841 21.1132 7.7626 22.2374C8.8868 23.3616 10.4102 23.9953 12 24H30C31.5898 23.9953 33.1132 23.3616 34.2374 22.2374C35.3616 21.1132 35.9953 19.5898 36 18V9C35.9953 7.41016 35.3616 5.8868 34.2374 4.7626C33.1132 3.63841 31.5898 3.00475 30 3ZM30 18H12V6H18L21 9H30V18Z" fill="black"/>
</svg>
