<svg width="76" height="76" viewBox="0 0 76 76" fill="none" xmlns="http://www.w3.org/2000/svg">
<g clip-path="url(#clip0_3_82)">
<mask id="mask0_3_82" style="mask-type:luminance" maskUnits="userSpaceOnUse" x="0" y="0" width="76" height="76">
<path d="M0 0H76V76H0V0Z" fill="white"/>
</mask>
<g mask="url(#mask0_3_82)">
<path fill-rule="evenodd" clip-rule="evenodd" d="M33.2167 26.733L29.4785 25.9872L24.168 24.9232C23.2987 24.7478 22.3995 24.7904 21.5507 25.0474C20.7019 25.3043 19.93 25.7676 19.304 26.3957L13.4757 32.2287C12.8481 32.8579 12.3834 33.6308 12.122 34.4802L16.967 35.359C22.8544 36.4276 28.2756 39.2671 32.5067 43.4981C36.7377 47.7291 39.5771 53.1504 40.6457 59.0377L41.5245 63.8827C42.37 63.6215 43.1395 63.1607 43.776 62.529L49.6042 56.7007C50.8772 55.4277 51.4282 53.6037 51.0767 51.8367L50.0127 46.5262L49.267 42.788L51.9602 40.09L57.8645 34.1905C59.8499 32.2051 61.4247 29.8479 62.4989 27.2537C63.5731 24.6595 64.1256 21.8791 64.125 19.0712V11.875H56.9287C54.1217 11.875 51.3422 12.4278 48.7488 13.502C46.1555 14.5762 43.7991 16.1507 41.8142 18.1355L35.9147 24.0397L33.2167 26.733ZM57 45.125L62.9042 39.2207C68.2477 33.8764 71.2496 26.6286 71.25 19.0712V11.875C71.25 9.98533 70.4993 8.17306 69.1631 6.83686C67.8269 5.50067 66.0147 4.75 64.125 4.75H56.9287C49.3714 4.75035 42.1236 7.75233 36.7792 13.0957L30.875 19L25.5645 17.936C23.545 17.5302 21.4564 17.6301 19.4849 18.2268C17.5133 18.8235 15.7198 19.8985 14.2642 21.356L8.44074 27.189C7.27108 28.3576 6.34311 29.7452 5.70984 31.2726C5.07657 32.7999 4.75041 34.4371 4.74999 36.0905C4.74999 38.57 6.52174 40.698 8.96324 41.1397L15.694 42.3652C20.1547 43.1749 24.2622 45.3263 27.468 48.532C30.6737 51.7378 32.8251 55.8453 33.6347 60.306L34.8602 67.0367C35.302 69.4782 37.4252 71.25 39.9095 71.25C43.2487 71.25 46.4502 69.92 48.8157 67.5592L54.6392 61.7357C56.0975 60.2797 57.1729 58.4854 57.7696 56.5129C58.3664 54.5405 58.4658 52.451 58.0592 50.4307L57 45.125ZM18.715 57.3372C17.2377 55.8647 15.105 56.0072 13.9412 57.1662C12.8345 58.273 11.932 60.2917 11.438 63.0895C11.3374 63.6659 11.2582 64.2458 11.2005 64.828C11.7832 64.7678 12.3801 64.6839 12.9912 64.5762C15.8222 64.0727 17.822 63.1702 18.8812 62.1062C20.045 60.9472 20.1875 58.8145 18.7102 57.3372M23.75 52.3022C19.6032 48.1507 12.9532 48.0747 8.90149 52.1312C3.69074 57.3325 3.80949 66.9465 3.97574 69.882C4.00899 70.452 4.26074 70.9745 4.66449 71.3782C5.07117 71.7841 5.6112 72.0288 6.18449 72.067C9.13899 72.219 18.7815 72.2855 23.921 67.1507C27.9727 63.0942 27.8967 56.449 23.75 52.3022ZM55.955 25.0847C56.6043 24.4132 56.9638 23.5134 56.9561 22.5793C56.9484 21.6453 56.5742 20.7516 55.914 20.0907C55.2538 19.4299 54.3604 19.0548 53.4263 19.0463C52.4923 19.0377 51.5922 19.3964 50.92 20.045L43.795 27.17C43.1657 27.8453 42.8231 28.7386 42.8394 29.6615C42.8557 30.5844 43.2296 31.465 43.8823 32.1177C44.535 32.7704 45.4156 33.1443 46.3385 33.1606C47.2614 33.1769 48.1547 32.8343 48.83 32.205L55.955 25.0847Z" fill="black"/>
</g>
</g>
<defs>
<clipPath id="clip0_3_82">
<rect width="76" height="76" fill="white"/>
</clipPath>
</defs>
</svg>
