<svg width="178" height="48" viewBox="0 0 178 48" fill="none" xmlns="http://www.w3.org/2000/svg">
<path d="M1.875 9.90909H11.7045L18.4659 26.3864H18.8068L25.5682 9.90909H35.3977V39H27.6705V22.1818H27.4432L20.9659 38.7727H16.3068L9.82955 22.0682H9.60227V39H1.875V9.90909ZM59.7844 39V9.90909H72.3412C74.5003 9.90909 76.3895 10.3021 78.0088 11.0881C79.6281 11.8741 80.8876 13.0057 81.7872 14.483C82.6868 15.9602 83.1366 17.7311 83.1366 19.7955C83.1366 21.8788 82.6726 23.6354 81.7446 25.0653C80.826 26.4953 79.5334 27.5748 77.8668 28.304C76.2096 29.0331 74.273 29.3977 72.0571 29.3977H64.5571V23.2614H70.4662C71.3942 23.2614 72.1849 23.1477 72.8384 22.9205C73.5012 22.6837 74.0079 22.3097 74.3582 21.7983C74.7181 21.2869 74.898 20.6193 74.898 19.7955C74.898 18.9621 74.7181 18.285 74.3582 17.7642C74.0079 17.2339 73.5012 16.8456 72.8384 16.5994C72.1849 16.3437 71.3942 16.2159 70.4662 16.2159H67.6821V39H59.7844ZM76.8298 25.6477L84.1026 39H75.523L68.4207 25.6477H76.8298ZM82.5077 16.2727V9.90909H107.792V16.2727H99.0418V39H91.2577V16.2727H82.5077ZM151.81 9.90909V39H145.219L134.707 23.7159H134.537V39H126.639V9.90909H133.344L143.685 25.1364H143.912V9.90909H151.81ZM168.027 19C167.951 18.053 167.596 17.3144 166.962 16.7841C166.337 16.2538 165.385 15.9886 164.107 15.9886C163.292 15.9886 162.625 16.0881 162.104 16.2869C161.592 16.4763 161.214 16.7367 160.967 17.0682C160.721 17.3996 160.593 17.7784 160.584 18.2045C160.565 18.5549 160.627 18.8722 160.769 19.1562C160.92 19.4309 161.157 19.6818 161.479 19.9091C161.801 20.1269 162.213 20.3258 162.715 20.5057C163.217 20.6856 163.813 20.8466 164.504 20.9886L166.891 21.5C168.501 21.8409 169.878 22.2907 171.024 22.8494C172.17 23.4081 173.108 24.0663 173.837 24.8239C174.566 25.572 175.101 26.4148 175.442 27.3523C175.792 28.2898 175.972 29.3125 175.982 30.4205C175.972 32.3333 175.494 33.9527 174.547 35.2784C173.6 36.6042 172.246 37.6127 170.485 38.304C168.733 38.9953 166.626 39.3409 164.163 39.3409C161.635 39.3409 159.429 38.9669 157.544 38.2188C155.669 37.4706 154.211 36.3201 153.169 34.767C152.137 33.2045 151.616 31.2064 151.607 28.7727H159.107C159.154 29.6629 159.377 30.411 159.774 31.017C160.172 31.6231 160.731 32.0824 161.45 32.3949C162.18 32.7074 163.046 32.8636 164.05 32.8636C164.893 32.8636 165.598 32.7595 166.166 32.5511C166.735 32.3428 167.165 32.054 167.459 31.6847C167.753 31.3153 167.904 30.8939 167.913 30.4205C167.904 29.9754 167.757 29.5871 167.473 29.2557C167.199 28.9148 166.744 28.6117 166.11 28.3466C165.475 28.072 164.618 27.8163 163.538 27.5795L160.641 26.9545C158.065 26.3958 156.034 25.4631 154.547 24.1562C153.07 22.84 152.336 21.0455 152.345 18.7727C152.336 16.9261 152.828 15.3116 153.823 13.929C154.826 12.5369 156.214 11.4527 157.985 10.6761C159.765 9.89962 161.806 9.51136 164.107 9.51136C166.455 9.51136 168.486 9.90436 170.2 10.6903C171.914 11.4763 173.235 12.5843 174.163 14.0142C175.101 15.4347 175.574 17.0966 175.584 19H168.027Z" fill="white"/>
<rect x="111" y="38.9988" width="30" height="12" rx="6" transform="rotate(-89.4912 111 38.9988)" fill="white"/>
<rect x="111.252" y="38.751" width="29.5" height="11.5" rx="5.75" transform="rotate(-89.4912 111.252 38.751)" stroke="black" stroke-opacity="0.13" stroke-width="0.5"/>
<path d="M38 38.9793L38.0699 31.1078C38.1085 26.7605 41.664 23.2676 46.0113 23.3062L49.2647 23.3351C53.612 23.3737 57.1049 26.9292 57.0663 31.2765L56.9964 39.148L38 38.9793Z" fill="white"/>
<path d="M38.3199 31.1098C38.3574 26.9007 41.8002 23.5193 46.0093 23.5567L49.2621 23.5856C53.4713 23.623 56.8535 27.0649 56.8162 31.2741L56.7486 38.8958L38.2522 38.7316L38.3199 31.1098Z" stroke="black" stroke-opacity="0.13" stroke-width="0.5"/>
<rect x="113" y="11" width="8" height="8" rx="4" fill="#AABFFF"/>
<rect x="41.1922" y="9" width="13" height="13" rx="6.5" fill="#AABFFF"/>
</svg>
