<svg width="86" height="86" viewBox="0 0 86 86" fill="none" xmlns="http://www.w3.org/2000/svg">
<path d="M26.5167 61.8125C24.0083 63.9028 21.3961 64.8583 18.6799 64.6792C15.9637 64.5 13.5892 63.5743 11.5562 61.9021C9.5233 60.2299 8.13535 58.0357 7.39241 55.3195C6.64946 52.6033 7.14157 49.8107 8.86874 46.9417L15.5875 35.8333C14.0944 34.5194 12.9155 32.9368 12.0507 31.0854C11.186 29.234 10.7524 27.2333 10.75 25.0833C10.75 21.1417 12.1535 17.7674 14.9604 14.9604C17.7674 12.1535 21.1417 10.75 25.0833 10.75C29.025 10.75 32.3993 12.1535 35.2062 14.9604C38.0132 17.7674 39.4167 21.1417 39.4167 25.0833C39.4167 29.025 38.0132 32.3993 35.2062 35.2062C32.3993 38.0132 29.025 39.4167 25.0833 39.4167C24.5458 39.4167 24.0083 39.3868 23.4708 39.3271C22.9333 39.2674 22.4257 39.1778 21.9479 39.0583L15.05 50.7042C14.393 51.7792 14.184 52.8398 14.4229 53.8862C14.6618 54.9325 15.1694 55.7829 15.9458 56.4375C16.7222 57.0921 17.6479 57.4659 18.7229 57.5591C19.7979 57.6522 20.843 57.2784 21.8583 56.4375L59.4833 24.0979C61.9917 22.0076 64.6194 21.0664 67.3667 21.2742C70.1139 21.4821 72.5028 22.4233 74.5333 24.0979C76.5639 25.7725 77.9375 27.9679 78.6542 30.6841C79.3708 33.4002 78.8632 36.1917 77.1312 39.0583L70.4125 50.1667C71.9055 51.4806 73.0857 53.0632 73.9528 54.9146C74.82 56.766 75.2524 58.7667 75.25 60.9167C75.25 64.8583 73.8465 68.2326 71.0396 71.0396C68.2326 73.8465 64.8583 75.25 60.9167 75.25C56.975 75.25 53.6007 73.8465 50.7937 71.0396C47.9868 68.2326 46.5833 64.8583 46.5833 60.9167C46.5833 56.975 47.9868 53.6007 50.7937 50.7938C53.6007 47.9868 56.975 46.5833 60.9167 46.5833C61.4542 46.5833 61.9773 46.6132 62.4862 46.6729C62.995 46.7326 63.4871 46.8222 63.9625 46.9417L70.95 35.2958C71.6069 34.2208 71.816 33.1602 71.5771 32.1138C71.3382 31.0675 70.8305 30.2171 70.0542 29.5625C69.2778 28.9079 68.3521 28.5353 67.2771 28.4445C66.2021 28.3537 65.1569 28.7264 64.1417 29.5625L26.5167 61.8125Z" fill="black"/>
</svg>
