<svg width="64" height="64" viewBox="0 0 64 64" fill="none" xmlns="http://www.w3.org/2000/svg">
<path fill-rule="evenodd" clip-rule="evenodd" d="M10.7933 2.06131C15.1747 1.70531 22.1147 1.33331 32 1.33331C41.8853 1.33331 48.8253 1.70531 53.2067 2.06131C57.916 2.44398 61.5573 6.08398 61.94 10.7946C62.296 15.1733 62.6667 22.1133 62.6667 32C62.6667 41.8866 62.296 48.8253 61.94 53.2066C61.5573 57.916 57.916 61.5573 53.2067 61.94C48.8253 62.296 41.8853 62.6666 32 62.6666C22.1147 62.6666 15.1747 62.296 10.7933 61.94C6.08401 61.5573 2.44268 57.916 2.06001 53.2066C1.70668 48.8253 1.33334 41.8853 1.33334 32C1.33334 22.1146 1.70534 15.1746 2.06134 10.7933C2.44401 6.08398 6.08401 2.44265 10.7947 2.05998M6.90001 19.3333C6.7383 23.5536 6.66051 27.7766 6.66668 32C6.66668 41.752 7.03334 48.5466 7.37601 52.7733C7.54801 54.88 9.12134 56.4533 11.2253 56.624C15.4533 56.9666 22.248 57.3333 32 57.3333C41.752 57.3333 48.5467 56.9666 52.7733 56.624C54.88 56.452 56.4533 54.8787 56.624 52.7747C56.9667 48.5466 57.3333 41.752 57.3333 32C57.3333 27.0266 57.2387 22.8213 57.0987 19.3333H6.90001ZM9.66668 11.3333C9.66668 10.0453 10.712 8.99998 12 8.99998H14.6667C15.2855 8.99998 15.879 9.24581 16.3166 9.6834C16.7542 10.121 17 10.7145 17 11.3333C17 11.9522 16.7542 12.5456 16.3166 12.9832C15.879 13.4208 15.2855 13.6666 14.6667 13.6666H12C11.3812 13.6666 10.7877 13.4208 10.3501 12.9832C9.91251 12.5456 9.66668 11.9522 9.66668 11.3333ZM22.6667 8.99998C22.0478 8.99998 21.4543 9.24581 21.0168 9.6834C20.5792 10.121 20.3333 10.7145 20.3333 11.3333C20.3333 11.9522 20.5792 12.5456 21.0168 12.9832C21.4543 13.4208 22.0478 13.6666 22.6667 13.6666H25.3333C25.9522 13.6666 26.5457 13.4208 26.9833 12.9832C27.4208 12.5456 27.6667 11.9522 27.6667 11.3333C27.6667 10.7145 27.4208 10.121 26.9833 9.6834C26.5457 9.24581 25.9522 8.99998 25.3333 8.99998H22.6667Z" fill="black"/>
</svg>
